<svg xmlns="http://www.w3.org/2000/svg" viewBox="0 0 567.3 487.1"><path d="M444.4 265.9c-4 0-7.2 3.3-7.2 7.3v123c0 4-3.3 7.4-7.3 7.4h5-297.3c-4 0-7.3-3.3-7.3-7.4V273c0-4-3.1-7.1-7-7.3-12.4-.3-44.7-1.7-44.7-7.3l.5 221.4c0 4 3.3 7.3 7.4 7.3h393.8c2 0 4-.9 5.3-2.3l.3-.4c1.3-1.3 2-3.1 2-5v-221c0 6.2-26.4 7.3-38.5 7.5h-5Zm-42 187.8c0 9.6-7.8 17.3-17.4 17.3H181.5c-9.6 0-17.3-7.8-17.3-17.3v-19c0-9.5 7.7-17.3 17.3-17.3H385c9.6 0 17.3 7.8 17.3 17.3v19ZM409.8 0H151.7L44.3 194.1s-5.8 43.1 53.8 55.5c32.6 3 49.1-21 49.1-21s16 21.1 44.5 21.5c28.5.4 46.4-21.5 46.4-21.5s14.5 20.4 43.7 21.5c29.3 1 47-21.5 47-21.5s20.7 23 45.9 21.5a72.1 72.1 0 0 0 43.5-21.5s15.7 22.2 51.2 21.5c53-8.4 54.2-56 54.2-56L409.7 0ZM255.2 34.7l-15.3 172a25.8 25.8 0 0 1-6.4 14.8A59.9 59.9 0 0 1 198 242c-2 .2-4.2.3-6.2 0a54.4 54.4 0 0 1-31.4-14.5c-7.2-6.7-10-16.8-7.2-26.2l51.2-176a26 26 0 0 1 50.8 9.5Zm150.4 192.7c-7 6.4-17.4 13-31.5 14.6-2 .2-4.1.1-6.2-.2-16.8-2.3-29-12.9-35.5-20.3a26 26 0 0 1-6.4-14.9l-15.3-172a26 26 0 0 1 50.8-9.5l51.2 176.1c2.7 9.4 0 19.6-7.2 26.2Z" style="fill:#49beed;stroke-width:0"/></svg>