<?xml version="1.0" encoding="UTF-8"?><svg id="a" xmlns="http://www.w3.org/2000/svg" viewBox="0 0 2009.7 1539.09"><defs><style>.c{fill:#3fc0ef;stroke-width:0px;}</style></defs><path class="c" d="M761.43,1058.92c7.79.95,10.52,6.43,8.16,16.45-1.57,6.67-5.53,14.79-11.87,24.34-6.32,9.52-14.19,18.13-23.6,25.82-9.37,7.66-19.83,15.45-31.38,23.36-11.48,7.86-24.55,15.9-39.18,24.09-14.52,8.13-30.17,15.92-46.91,23.34-16.6,7.37-33.73,13.56-51.36,18.59-38.49,11.07-73.28,13.73-104.58,8.23-23.54-4.14-42.26-15.19-56.29-33.07-14.58-18.54-19.45-38.84-14.68-61.06,7.51-35.02,29.85-66.38,67.56-94.4,33.14-24.6,70.41-42.72,112.06-54.21,25.78-7.09,47.14-9.81,63.91-8.08,13.7,1.41,24.44,6.6,32.17,15.58,8.21,9.81,10.64,22.09,7.27,36.79-5.27,23-26.51,46.4-63.19,69.9-5.8,3.79-10.97,6.92-15.52,9.39l-9.45,5.24c-17.5,10.23-42.71,20.73-75.33,31.44,7.71,7.07,15.48,11.22,23.31,12.42,7.86,1.21,15.21,1.17,22.05-.13,6.86-1.3,14.8-3.45,23.84-6.44,9.08-3.01,18.96-6.78,29.65-11.34,10.74-4.58,21.79-9.75,33.15-15.51,25.6-12.93,81.9-94.44,102.31-109.22,10.87-8.22-9.48,53.38,5.44,49.54,4.9-1.11,9.06-1.46,12.45-1.05ZM494.23,1101.32l13.28-5.61c4.37-1.89,8.29-3.67,11.75-5.33,33.63-16.3,53.26-26.67,58.45-30.91,5.2-4.25,8.02-7.3,8.44-9.16s.46-4.08.13-6.67c-.33-2.59-1.02-4.95-2.06-7.08-2.44-5.38-5.64-8.31-9.62-8.79s-8.53-.11-13.68,1.08c-5.14,1.19-10.44,3.03-15.91,5.52-5.46,2.48-10.85,5.59-16.19,9.32-5.32,3.72-10.16,7.81-14.51,12.25-9.95,9.94-15.24,16.87-16.99,24.81-1.75,7.94-3.13,16.13-3.09,20.57Z"/><path class="c" d="M957.11,1073.58c-.57,16.95,3.76,25.25,13.03,24.95,22.9-.75,54.11-30.83,93.22-65.91l7.29,5.49c15.42-11.12,27.9-16.96,37.37-17.43,9.51-.48,15.5.68,17.93,3.48s3.51,7.42,3.23,13.86c-.63,14.42-8.38,29.96-23.15,46.53-21.93,26.8-51.09,52.09-87.17,75.79-40.94,27-76.51,40.39-107.05,40.63-21.06.16-33.8-12.27-38.41-37.3-1.31-6.48-2.22-12.7-2.71-18.66-1.25-14.45-2.77-22.47-4.56-24.05-1.78-1.58-5.4-1.34-10.83.71-5.42,2.04-11.84,5.37-19.25,9.97-7.38,4.58-15.52,10.09-24.42,16.53-46.38,34.38-72.48,53.6-79.23,58.34-16.06,11.16-26.78,16.7-32.25,16.71-5.46.01-10.76-1.26-15.92-3.81-5.14-2.55-9.62-5.77-13.45-9.68-7.92-8.64-11.8-17.47-11.66-26.51.82-51.87,14.93-97.67,35.61-138.05,13.96-27.56,30.33-46.57,50.55-58.32,10.36-6.2,21.52-9.71,33.48-10.5,22.04-1.45,32.96,5.99,32.56,22.31-.24,9.96-8.7,25.61-19.71,48.62l-7.58,16.17c-5.36,11.1-7.97,17.35-7.84,18.76.83,5.3,2.92,7.89,6.27,7.77,3.67-.13,9.19-3.37,16.56-9.72l45.94-39.05,23.41-18.69c27.34-20.63,55.63-33.05,68.54-33.82,6.91-.41,13.15,2.21,18.7,7.87,10.29,10.29,7.27,21.07,7,29.14-.09,2.63-.42,5.83-.98,9.6-.56,3.77-1.18,7.82-1.85,12.14l-1.49,13.22c-.67,4.5-1.08,8.81-1.21,12.9Z"/><path class="c" d="M1135.81,1063.25c-24.31,15.02-35.45,29.01-34.44,46.38.44,7.49,4.37,11.09,14.09,10.8,8.08-.24,32.84-10.17,58.25-26.59l22.85-15.26c16.51-11.26,29.93-21.55,40.19-30.84l14.56-43.16c18.09-52.12,37.8-96.1,58.93-131.88,24.75-41.9,55.42-78,92.19-82.33,13.61-1.6,24.32-.32,32.09,3.86,14.05,7.56,20.74,16.98,20.02,28.18-.72,11.2-3.53,23.25-8.39,36.13-4.86,12.84-10.31,19.68-17.62,32.45-7.28,12.71-15.47,25.35-24.55,37.89l-33.52,42.35c-8.88,11.3-16.74,22.19-23.59,32.68-12.34,24.82-18.95,45.72-19.91,62.83-1.38,24.54,6.64,36.5,24.16,35.93,10.05-.33,28.94-11.68,56.96-34.33l36.7-31.11c17.52-15.54,34.74-26.82,51.61-33.76,4.82-2.08,8.67-3.2,11.55-3.36,9.27-.52,13.59,3.89,12.96,13.21-1.01,14.78-12.29,36.01-33.65,63.46-14.74,18.98-43.92,45.28-86.82,78.39-49.76,38.12-88.09,56.84-115.75,56.98-20.63.1-35.59-8.71-45.02-26.4-5.68-10.66-9.95-26.32-12.8-47.01l-24.37,18.26c-65.14,47.07-119.64,66.27-149.11,66.3-24.24.03-43.07-9.51-56.7-28.54-11.9-17.04-9.47-33.84-8.64-57.84.92-26.52,11.2-45.57,31.15-67.23,32.84-35.65,37.68-35.5,64.98-52.95,20.54-13.13,93.72-40.34,99.68-40.75s11.43.3,16.37,2.12c4.95,1.83,9.83,4.27,14.65,7.34,11.38,7.75,16.89,15.61,16.49,23.56-.32,6.43-4.35,11.83-12.05,16.21"/><path class="c" d="M1417.95,1124.32c-3.6.09-7.1-.65-10.49-2.23-3.38-1.57-6.46-4.17-9.24-7.79-6.06-7.94-17.02-2.67-16.15-16.75.93-15.04,32.81-39.35,46.6-66.17,24.01-46.68,65.43-75.7,79.87-82.71,31.3-15.2,32.76-17.01,52.43-18.44,17.57-1.28,29.2,2.61,34.76,11.69l3.91,6.25c2.98,4.74,6.15,6.99,9.52,6.77,3.37-.22,8.67-.87,15.92-1.94l45.94-6.05c7.22-1.09,12.91-1.77,17.07-2.05,4.16-.28,8.82.77,13.99,3.16,5.17,2.39,9.68,5.7,13.51,9.9,8.47,9.61,12.2,20.54,11.17,32.76-1.06,12.61-17.86,33.12-49.97,61.16l-22.89,20.53c-16.27,14.96-24.49,24.25-24.78,27.98s1.35,6.96,4.93,9.7c3.59,2.74,7.61,4.06,12.07,3.94,4.47-.12,9.63-1.39,15.48-3.82,5.87-2.43,13.2-6.01,22-10.72,8.84-4.74,19-10.49,30.51-17.27,31.93-19.26,53.6-32.69,64.63-40.08l30.13-19.49c20.83-13.4,35.56-20.37,44.03-20.8,8.5-.44,15.33.83,20.5,3.81,5.17,2.99,7.38,8.48,6.62,16.46-.76,7.98-6.41,18.87-16.9,32.62-10.43,13.67-21.4,25.51-32.89,35.56-11.43,9.99-22.43,19.19-33.01,27.61-10.53,8.38-22.8,17.4-36.79,27.06-13.89,9.58-29.06,19.22-45.49,28.88-16.29,9.59-33.23,18.16-50.79,25.74-39.22,17.08-74.03,25.5-104.67,25.5-43.92,0-69.5-10.56-77.43-31.67-2.49-6.34-3.47-13.45-2.93-21.32.54-7.88,2.69-16.41,6.45-25.61,3.77-9.22,8.54-18.44,14.31-27.67,11.59-18.37,25.02-34.85,40.34-49.41,13.07-12.67,19.73-20.2,19.9-22.53.27-3.69-1.76-5.92-6.08-6.7-4.32-.77-10.73-.96-19.24-.56-3.64.17-11.75,5.54-24.26,16.04l-30.87,26.88c-32.14,27.77-52.57,41.57-61.7,41.8Z"/><path class="c" d="M450.84,1308.08H77.67C34.81,1308.08.06,1273.33.06,1230.46v-373.17c0-42.8,34.82-77.62,77.62-77.62l429.16,4.05-48.19,45.98H77.67c-15.23,0-27.58,12.35-27.58,27.58v373.17c0,15.23,12.35,27.58,27.58,27.58h373.17c11.51,0,21.24-7.16,25.53-17.14.18-.42,1.55-2.6,1.32-3.31,0,0,10.88,3.03,21.59,1.95.7-.07,1.4-.12,2.11-.11.84,0,1.91-.04,2.31-.09,12.51-.09,24.12-2.95,24.12-2.95.09,3.69.28,2.71-.41,6.87-6.12,36.73-38.12,64.81-76.56,64.81Z"/><path class="c" d="M528.35,977.51l-14.92,7.59c-2.54,1.05-12.03,5.36-17.8,8.52l-17.32,9.5v-22.84l18.51-23.33c.98-1.24,8.63-10.16,12.78-14.78l18.74-21.5v56.83Z"/><path class="c" d="M94.3,1075.57c16.7,9.34,32.94,19.49,48.54,30.59,3.69,2.63,7.35,5.31,10.97,8.04,7.29,5.51-6.04-4.84-.31-.25,1.64,1.31,3.29,2.61,4.92,3.94,7.61,6.17,15.02,12.6,22.18,19.3,6.87,6.42,13.5,13.09,19.86,20.02,3.04,3.31,6.01,6.68,8.91,10.11,1.78,2.1,3.52,4.23,5.24,6.38,1.77,2.21,5.19,8.16-.96-1.29,5.19,7.97,11.08,15.4,16,23.58,4.84,8.04,9.18,16.34,13.06,24.88,5.44,11.97,20.74,19.04,33.2,19.04s28.06-7.04,33.2-19.04c20.35-47.49,42.63-93.81,71.43-136.83,15.06-22.5,30.82-44.53,47.1-66.16,3.62-4.81,7.28-9.6,10.95-14.38,2.9-3.78-5.17,6.66-2.27,2.94.82-1.05,1.63-2.1,2.45-3.15,1.79-2.3,3.59-4.59,5.39-6.88,6.27-7.96,12.6-15.86,19-23.71,35.31-43.31,71.53-85.4,113.3-122.74,9.17-8.2,18.53-16.17,28.13-23.87,2.51-2.01,4.99-4.08,7.58-5.98-.18.13-7.98,6.07-3.17,2.47,1.3-.97,2.58-1.95,3.88-2.92,4.93-3.69,9.93-7.29,14.99-10.8,20.29-14.07,39.27-26.75,64.38-36.38-3.06,1.29-6.12,2.58-9.19,3.88,3.9-1.63,7.82-3.18,11.78-4.64,9.58-3.53,17.97-13.33,22.89-20.39,5.45-7.84,4.87-17.24,3.97-26.91-1.55-16.71-15.09-44.93-52.29-28.73-46.68,20.33-84.47,47.63-123.68,79.68-30.56,24.98-59.05,52.57-85.51,81.84-14.17,15.68-27.48,32.15-40.97,48.42-31.33,37.76-61.4,76.66-89.52,116.87-17.8,25.46-34.65,51.45-49.24,78.9-13.95,26.24-26.07,53.38-37.77,80.68h66.4c-17.1-37.64-44.06-71.12-74.13-99.24-30.6-28.62-65.32-53.21-101.87-73.64-17.56-9.81-42.78-4.8-52.61,13.79-9.58,18.14-4.96,42.13,13.79,52.61Z"/></svg>