<?xml version="1.0" encoding="UTF-8"?><svg id="a" xmlns="http://www.w3.org/2000/svg" viewBox="0 0 567.33 487.09"><defs><style>.b{fill:#49bfee;stroke-width:0px;}</style></defs><path class="b" d="M184.56,238.18l206.88,194.16c22.56,21.17,63.86,27.01,85.24,4.64h0c20.18-21.12,14.99-60.95-4.26-82.92l-103.1-117.61,101.84-114.7c19.81-22.31,27-64.33,5.9-85.43l-1-1c-21.54-21.54-64.48-13.94-86.68,6.92l-204.83,192.49c-1,.94-1,2.52,0,3.46Z"/><path class="b" d="M368.81,238.18l-206.88,194.16c-22.56,21.17-63.86,27.01-85.24,4.64h0c-20.18-21.12-14.99-60.95,4.26-82.92l103.1-117.61-101.84-114.7c-19.81-22.31-27-64.33-5.9-85.43l1-1c21.54-21.54,64.48-13.94,86.68,6.92l204.83,192.49c1,.94,1,2.52,0,3.46Z"/></svg>